<svg clip-rule="evenodd" fill-rule="evenodd" stroke-linejoin="round" stroke-miterlimit="2" viewBox="0 0 64 64" xmlns="http://www.w3.org/2000/svg"><path d="m-.0004.0001h64v64h-64z" fill="none"/><path d="m4.47.22c.14-.141.331-.22.53-.22h6c.199 0 .39.079.53.22l4.25 4.25c.141.14.22.331.22.53v6c0 .199-.079.39-.22.53l-4.25 4.25c-.14.141-.331.22-.53.22h-6c-.199 0-.39-.079-.53-.22l-4.25-4.25c-.141-.14-.22-.331-.22-.53v-6c0-.199.079-.39.22-.53zm.84 1.28-3.81 3.81v5.38l3.81 3.81h5.38l3.81-3.81v-5.38l-3.81-3.81zm2.69 2.5c.411 0 .75.339.75.75v3.5c0 .411-.339.75-.75.75s-.75-.339-.75-.75v-3.5c0-.411.339-.75.75-.75zm0 8c.549 0 1-.451 1-1s-.451-1-1-1-1 .451-1 1 .451 1 1 1z" fill="#c44d58" transform="matrix(3.75 0 0 3.75 1.9993 2.0001)"/></svg>